# xmcd
#
# Track frame offsets:
#	150
#	13969
#	24163
#	36667
#	48543
#	64226
#	79267
#	92171
#	104720
#	117153
#	129182
#	142390
#
# Disc length: 2065
#
# Revision: 3
# Processed by: cddbd v1.5.1PL0 Copyright (c) Steve Scherf et al.
# Submitted via: libkcddb 0.10
# Normalized: r2:TDELIM( - )
#
DISCID=b0080f0c
DTITLE=Multiple Artists - Birth of Blues - Volume 2 - Stop breakin' down Blues
DYEAR=1900
DGENRE=Unknown
TTITLE0=Leadbelly - Midnight special
TTITLE1=Robert Johnson - Stop breakin' down blues
TTITLE2=Sonny Boy Williamson - Early in the morning
TTITLE3=Big Jo Williams - Baby please don't go
TTITLE4=Tampa Red - My daddy rocks me
TTITLE5=Bessie Smith - Careless love Blues
TTITLE6=Leadbelly - Good morning Blues
TTITLE7=Big Bill Boonzy - Night time is the right time
TTITLE8=Billy Holiday - Summertime
TTITLE9=Chippie Hill - Trouble in mind
TTITLE10=Bessie Smith - Reckless Blues
TTITLE11=Robert Johnson - Travelling riverside Blues
EXTD=
EXTT0=
EXTT1=
EXTT2=
EXTT3=
EXTT4=
EXTT5=
EXTT6=
EXTT7=
EXTT8=
EXTT9=
EXTT10=
EXTT11=
PLAYORDER=
